<?xml version="1.0" encoding="utf-8"?>
<!-- Generator: Adobe Illustrator 16.0.3, SVG Export Plug-In . SVG Version: 6.00 Build 0)  -->
<!DOCTYPE svg PUBLIC "-//W3C//DTD SVG 1.1//EN" "http://www.w3.org/Graphics/SVG/1.1/DTD/svg11.dtd">
<svg version="1.1" id="Layer_1" xmlns="http://www.w3.org/2000/svg" xmlns:xlink="http://www.w3.org/1999/xlink" x="0px" y="0px"
	 width="512px" height="512px" viewBox="0 0 512 512" style="enable-background:new 0 0 512 512;" xml:space="preserve">
<style type="text/css">
<![CDATA[
	.st0{fill:#14B6B9;}
	.st1{fill:#4B7BB2;}
	.st2{fill:#1E4384;}
	.st3{fill:#ED488B;}
	.st4{fill:#EF4754;}
	.st5{fill:#EF4823;}
	.st6{fill:#8A4581;}
	.st7{fill:#BCBCBC;}
	.st8{fill:#F26322;}
	.st9{fill:#F6851F;}
	.st10{fill:#283D5B;}
	.st11{fill:#C56528;}
	.st12{fill:#2B8C5E;}
	.st13{fill:#FCBF95;}
	.st14{fill:#FEBF10;}
	.st15{fill:none;}
	.st16{fill:#CAD7D6;}
	.st17{fill:#CBDB2D;}
	.st18{fill:#373837;}
	.st19{fill:#D03827;}
	.st20{fill:#3AB37C;}
	.st21{fill:#D6E5E5;}
	.st22{fill:#71C598;}
]]>
</style>
<g>
	<g>
		<g>
			<path class="st21" d="M406.791,207.35c-4.842-21.553-13.785-43.384-29.732-59.127c-15.815-15.612-35.977-26.384-57.285-32.434
				c-21.805-6.191-44.756-8.457-67.331-6.15c-20.312,2.075-38.558,8.054-56.329,18.011c-19.377,10.856-38.064,24.074-53.09,40.544
				c-12.805,14.034-24.508,31.678-22.853,51.443c0.085,0.389,0.13,0.811,0.116,1.275c0.057,0.502,0.041,0.966-0.023,1.398
				c-0.557,25.248,3.471,50.78,13.214,74.155c8.47,20.322,21.202,39.187,38.722,52.779c18.666,14.48,41.402,21.399,64.588,24.438
				c24.634,3.229,50.244,2.151,74.297-4.307c22.979-6.169,46.643-16.854,63.363-34.264
				C406.273,301.975,416.729,251.578,406.791,207.35z M329.486,248.678c-5.668,35.846-47.257,51.655-79.539,48.267
				c-16.021-1.682-35.727-8.699-44.039-23.675c-10.596-19.09-4.969-41.617,5.164-59.935c-0.984-1.612-1.046-3.689,0.697-5.481
				c18.824-19.348,50.127-25.236,75.677-18.112c12.485,3.481,24.361,9.849,32.392,20.278
				C328.156,220.823,331.615,235.215,329.486,248.678z"/>
		</g>
	</g>
	<g>
		<g>
			<path class="st0" d="M307.367,211.174c-21.254-19.058-59.509-19.074-82.365-1.738c-0.125,0.31-0.287,0.625-0.496,0.943
				c-13.182,20.062-24.445,53.126,1.219,68.487c16.408,9.821,37.529,10.818,55.607,5.359c15.178-4.583,30.359-13.868,36.265-29.331
				C323.265,240.056,319.242,221.822,307.367,211.174z"/>
		</g>
	</g>
	<g>
		<g>
			<path class="st0" d="M474.964,160.214c-21.34-43.359-61.608-77.51-104.185-99.043c-42.806-21.652-92.271-33.053-140.14-25.494
				c-78.905,12.461-155.354,70.33-177.907,147.928c0.017,0.859-0.206,1.748-0.737,2.609c-0.389,1.424-0.766,2.852-1.118,4.289
				c-0.5,1.012-0.959,2.035-1.39,3.066c-0.131,0.949-0.26,1.871-0.445,2.697c-0.922,4.109-1.983,8.18-2.733,12.326
				c-1.384,7.654-1.136,15.721-3.812,23.021c-0.234,2.115-0.49,4.221-0.794,6.307c-0.036,0.256-0.024,0.492,0.011,0.719
				c-0.475,4.389-0.883,8.791-1.287,13.205c-0.841,9.178-1.24,18.393-1.072,27.609c0.33,18.053,2.354,36.18,6.904,53.678
				c8.67,33.336,25.497,64.824,52.007,87.348c18.228,15.486,39.549,25.66,62.419,32.326c25.009,7.289,51.032,11.408,77.107,11.471
				c51.486,0.125,103.197-13.916,145.553-43.721C461.837,365.323,520.954,253.657,474.964,160.214z M401.921,314.532
				c-11.471,20.529-27.776,37.073-48.374,48.508c-21.443,11.904-45.354,18.943-69.741,21.326c-45.817,4.476-98.03-4.18-130.806-39.1
				c-30.83-32.848-43.962-79.207-42.686-123.585c-2.412-21.428,8.836-41.542,22.55-57.136
				c15.317-17.419,34.307-31.809,54.378-43.327c17.482-10.033,35.236-17.419,55.279-20.406c22.211-3.31,45.273-2.615,67.228,2.17
				c21.816,4.755,43.118,13.227,61.069,26.688c17.982,13.484,30.725,31.245,38.738,52.193
				C425.685,224.027,424.146,274.755,401.921,314.532z"/>
		</g>
	</g>
	<g>
		<g>
			<path d="M474.65,139.286C449.443,98.888,408.706,67.64,365.982,47.72c-43.31-20.195-92.882-29.541-140.294-21.322
				c-81.824,14.182-159.954,74.66-182.875,155.631c-3.336,5.541-3.768,13.082-5.205,19.189c-1.015,4.303-1.729,8.689-2.326,13.068
				c-0.06,0.432-0.109,0.865-0.155,1.295c-0.099,0.264-0.189,0.533-0.249,0.832c-0.836,4.189-1.518,8.41-2.104,12.646
				c-0.033,0.074-0.061,0.148-0.096,0.223c-0.533,1.158-0.606,2.258-0.367,3.238c-1.014,8.078-1.688,16.207-2.263,24.316
				c-0.812,11.434-0.903,22.898-0.26,34.342c1.253,22.287,5.647,44.52,13.341,65.482c15.342,41.799,45.505,76.547,86.127,95.293
				c23.07,10.645,48.766,16.691,73.87,19.959c25.53,3.324,51.527,3.104,77-0.598c50.867-7.389,98.492-29.662,136.099-64.754
				c36.375-33.939,64.978-77.57,78.113-125.768C507.453,232.676,501.144,181.741,474.65,139.286z M383.345,420.555
				c-42.355,29.805-94.066,43.846-145.553,43.721c-26.075-0.062-52.099-4.182-77.107-11.471
				c-22.87-6.666-44.191-16.84-62.419-32.326c-26.51-22.523-43.337-54.012-52.007-87.348c-4.551-17.498-6.574-35.625-6.904-53.678
				c-0.168-9.217,0.231-18.432,1.072-27.609c0.404-4.414,0.812-8.816,1.287-13.205c-0.035-0.227-0.047-0.463-0.011-0.719
				c0.304-2.086,0.56-4.191,0.794-6.307c2.676-7.301,2.428-15.367,3.812-23.021c0.75-4.146,1.812-8.216,2.733-12.326
				c0.186-0.826,0.314-1.748,0.445-2.697c0.431-1.031,0.89-2.055,1.39-3.066c0.353-1.438,0.729-2.865,1.118-4.289
				c0.531-0.861,0.754-1.75,0.737-2.609C75.285,106.007,151.734,48.138,230.64,35.677c47.868-7.559,97.334,3.842,140.14,25.494
				c42.576,21.533,82.845,55.684,104.185,99.043C520.954,253.657,461.837,365.323,383.345,420.555z"/>
		</g>
	</g>
	<g>
		<g>
			<path d="M409.557,181.865c-8.014-20.949-20.756-38.709-38.738-52.193c-17.951-13.461-39.253-21.933-61.069-26.688
				c-21.954-4.785-45.017-5.48-67.228-2.17c-20.043,2.986-37.797,10.373-55.279,20.406c-20.071,11.518-39.061,25.908-54.378,43.327
				c-13.714,15.594-24.962,35.708-22.55,57.136c-1.276,44.378,11.855,90.737,42.686,123.585
				c32.775,34.919,84.988,43.575,130.806,39.1c24.388-2.383,48.298-9.421,69.741-21.326c20.598-11.436,36.903-27.979,48.374-48.508
				C424.146,274.755,425.685,224.027,409.557,181.865z M374.447,335.112c-16.721,17.41-40.385,28.095-63.363,34.264
				c-24.053,6.458-49.663,7.536-74.297,4.307c-23.186-3.04-45.922-9.958-64.588-24.438c-17.52-13.592-30.252-32.457-38.722-52.779
				c-9.743-23.375-13.771-48.907-13.214-74.155c0.064-0.432,0.08-0.896,0.023-1.398c0.014-0.464-0.031-0.886-0.116-1.275
				c-1.655-19.765,10.048-37.409,22.853-51.443c15.025-16.47,33.713-29.688,53.09-40.544c17.771-9.957,36.018-15.936,56.329-18.011
				c22.575-2.307,45.526-0.042,67.331,6.15c21.309,6.05,41.47,16.822,57.285,32.434c15.947,15.743,24.891,37.574,29.732,59.127
				C416.729,251.578,406.273,301.975,374.447,335.112z"/>
		</g>
	</g>
	<g>
		<g>
			<path d="M319.838,210.021c-8.03-10.429-19.906-16.796-32.392-20.278c-25.55-7.125-56.853-1.236-75.677,18.112
				c-1.743,1.792-1.682,3.869-0.697,5.481c-10.133,18.317-15.76,40.845-5.164,59.935c8.312,14.976,28.018,21.993,44.039,23.675
				c32.282,3.388,73.871-12.421,79.539-48.267C331.615,235.215,328.156,220.823,319.838,210.021z M317.597,254.895
				c-5.905,15.463-21.087,24.748-36.265,29.331c-18.078,5.459-39.199,4.462-55.607-5.359c-25.664-15.361-14.4-48.425-1.219-68.487
				c0.209-0.319,0.371-0.633,0.496-0.943c22.856-17.336,61.111-17.32,82.365,1.738C319.242,221.822,323.265,240.056,317.597,254.895
				z"/>
		</g>
	</g>
	<g>
		<g>
			<path class="st8" d="M337.105,137.383c-16.123-9.932-34.795-15.844-53.658-17.214c-19.566-1.421-38.523,2.833-56.969,9.036
				c-35.395,11.904-71.26,33.102-90.205,66.345c-0.018,0.011-0.037,0.019-0.055,0.03c-2.57,1.675-3.934,5.894-5.118,8.562
				c-2.059,4.634-1.878,10.049-2.069,15.023c-0.274,7.144-0.644,14.504,0.266,21.601c1.066,8.322,4.029,16.329,6.876,24.168
				c0.191,0.528,0.441,0.98,0.73,1.371c0.177,0.855,0.355,1.711,0.548,2.568c5.162,22.967,16.814,44.171,33.279,60.951
				c35.314,35.992,91.692,46.519,139.045,32.201c46.592-14.088,82.755-55.257,89.008-103.716
				C405.07,209.583,378.1,162.636,337.105,137.383z M303.119,173.808c-0.044,0.173-0.091,0.346-0.135,0.519
				c-0.029,0.115-0.047,0.226-0.069,0.338c-0.524-0.212-1.053-0.414-1.582-0.615C301.928,174.051,302.533,173.975,303.119,173.808z
				 M196.301,153.253c16.066-8.938,34.23-16.3,52.605-20.31v35.722c0,0.537,0.074,1.019,0.201,1.456
				c-20,3.99-38.543,13.656-52.908,28.177c-0.321,0.325-0.576,0.66-0.782,0.999c-0.106,0.094-0.205,0.203-0.306,0.307
				c-14.04-5.348-29.258-7.762-44.264-8.224C162.562,175.261,178.924,162.92,196.301,153.253z M217.414,309.056
				c-2.66,6.351-6.279,12.314-9.156,18.575c-1.562,3.398-4.976,10.019-4.015,14.725c-24.376-13.212-42.714-34.644-52.507-60.577
				c-2.678-7.092-4.611-14.289-5.895-21.548c11.475-0.248,23.316-1.546,34.551,1.022c0.434,2.351,0.984,4.694,1.669,7.023
				c5.22,17.756,18.932,32.539,35.528,40.413C217.529,308.808,217.469,308.926,217.414,309.056z M244.656,305.865
				c-16.666-1.853-31.941-8.784-42.826-21.763c-16.219-19.342-15.434-45.878-5.068-67.736c1.789-3.772,3.931-7.367,6.225-10.852
				c0.248-0.179,0.49-0.378,0.725-0.614c24.83-25.097,66.207-34.746,98.776-19.844c31.067,14.214,48.145,55.275,29.052,85.312
				C314.234,297.591,275.252,309.267,244.656,305.865z M271.834,316.139c-0.229-0.268-0.494-0.5-0.776-0.713
				c0.269-0.04,0.54-0.073,0.809-0.115C271.859,315.587,271.844,315.863,271.834,316.139z M348.951,329.503
				c-18.23,15.5-40.593,24.628-63.834,27.633c1.124-1.068,1.748-2.726,1.762-4.24c0.067-7.411,0.834-14.801,0.892-22.218
				c0.04-5.146,0.49-13.7-3.403-18.052c12.129-3.284,23.679-8.47,33.699-15.209c4.714-3.17,9.071-6.792,12.977-10.812
				c0.643,0.782,1.592,1.368,2.896,1.584c13.535,2.248,24.97,10.717,37.945,14.856C365.684,312.862,357.979,321.828,348.951,329.503
				z M350.559,219.296c-0.018,0-0.033-0.002-0.051-0.002h-5c-0.011,0-0.021,0.001-0.031,0.001
				c-1.273-3.585-2.768-7.068-4.459-10.377c-6.885-13.467-17.312-23.496-29.615-30.234c0.633-0.604,1.133-1.412,1.398-2.45
				c2.383-9.294,5.385-19.647,10.848-27.653c2.434-3.564-0.014-7.739-3.174-8.348c-0.043-0.093-0.084-0.185-0.133-0.275
				c26.43,12.177,48.438,34.348,60.387,61.24c3.027,6.815,5.236,13.809,6.693,20.877
				C375.346,219.551,362.893,219.316,350.559,219.296z"/>
		</g>
	</g>
</g>
</svg>
